<mxfile host="app.diagrams.net" modified="2024-03-30T20:18:46.155Z" agent="Mozilla/5.0 (Windows NT 10.0; Win64; x64) AppleWebKit/537.36 (KHTML, like Gecko) Chrome/122.0.0.0 Safari/537.36" etag="XT7yZ0zgOEE7C3oM72GA" version="24.2.1" type="device">
  <diagram name="Seite-1" id="hUYF5aSd3cpWdoB7X-0e">
    <mxGraphModel dx="2593" dy="1445" grid="1" gridSize="22" guides="1" tooltips="1" connect="1" arrows="1" fold="1" page="1" pageScale="1" pageWidth="3000" pageHeight="3000" background="none" math="0" shadow="0">
      <root>
        <mxCell id="0" />
        <mxCell id="1" parent="0" />
        <mxCell id="jL7Q_DGKL51akEEEm9NI-15" value="hasAddress" style="edgeStyle=none;curved=1;rounded=0;orthogonalLoop=1;jettySize=auto;html=1;entryX=0;entryY=0;entryDx=0;entryDy=0;fontSize=12;startSize=8;endSize=8;" parent="1" source="jL7Q_DGKL51akEEEm9NI-2" target="jL7Q_DGKL51akEEEm9NI-13" edge="1">
          <mxGeometry relative="1" as="geometry" />
        </mxCell>
        <mxCell id="jL7Q_DGKL51akEEEm9NI-20" style="edgeStyle=none;curved=1;rounded=0;orthogonalLoop=1;jettySize=auto;html=1;entryX=0.5;entryY=1;entryDx=0;entryDy=0;fontSize=12;startSize=8;endSize=8;" parent="1" source="jL7Q_DGKL51akEEEm9NI-2" target="jL7Q_DGKL51akEEEm9NI-18" edge="1">
          <mxGeometry relative="1" as="geometry" />
        </mxCell>
        <mxCell id="jL7Q_DGKL51akEEEm9NI-22" value="hasIndustry" style="edgeLabel;html=1;align=center;verticalAlign=middle;resizable=0;points=[];fontSize=12;" parent="jL7Q_DGKL51akEEEm9NI-20" vertex="1" connectable="0">
          <mxGeometry x="0.0039" relative="1" as="geometry">
            <mxPoint as="offset" />
          </mxGeometry>
        </mxCell>
        <mxCell id="cFpB28V_D8ZFhYfqeKpF-5" value="hasEarningsDate" style="edgeStyle=orthogonalEdgeStyle;rounded=0;orthogonalLoop=1;jettySize=auto;html=1;entryX=0.5;entryY=0;entryDx=0;entryDy=0;" parent="1" source="jL7Q_DGKL51akEEEm9NI-2" edge="1">
          <mxGeometry relative="1" as="geometry">
            <mxPoint x="284" y="440" as="targetPoint" />
          </mxGeometry>
        </mxCell>
        <mxCell id="zePkOHn8G72Zi9qGrkJn-6" value="hasRecommendation" style="edgeStyle=none;curved=1;rounded=0;orthogonalLoop=1;jettySize=auto;html=1;exitX=0;exitY=1;exitDx=0;exitDy=0;entryX=1;entryY=0;entryDx=0;entryDy=0;fontSize=12;startSize=8;endSize=8;" edge="1" parent="1" source="jL7Q_DGKL51akEEEm9NI-2" target="zePkOHn8G72Zi9qGrkJn-3">
          <mxGeometry relative="1" as="geometry" />
        </mxCell>
        <mxCell id="jL7Q_DGKL51akEEEm9NI-2" value="COMPANY" style="rounded=1;whiteSpace=wrap;html=1;" parent="1" vertex="1">
          <mxGeometry x="224" y="300" width="120" height="60" as="geometry" />
        </mxCell>
        <mxCell id="jL7Q_DGKL51akEEEm9NI-5" value="hasKeyExecutive" style="endArrow=classic;html=1;rounded=0;fontSize=12;startSize=8;endSize=8;curved=1;exitX=1;exitY=0.5;exitDx=0;exitDy=0;entryX=0;entryY=0.5;entryDx=0;entryDy=0;" parent="1" source="jL7Q_DGKL51akEEEm9NI-2" target="jL7Q_DGKL51akEEEm9NI-6" edge="1">
          <mxGeometry width="50" height="50" relative="1" as="geometry">
            <mxPoint x="464" y="540" as="sourcePoint" />
            <mxPoint x="434" y="330" as="targetPoint" />
          </mxGeometry>
        </mxCell>
        <mxCell id="jL7Q_DGKL51akEEEm9NI-6" value="PERSON" style="rounded=1;whiteSpace=wrap;html=1;" parent="1" vertex="1">
          <mxGeometry x="506" y="299.9999999999998" width="120" height="60" as="geometry" />
        </mxCell>
        <mxCell id="jL7Q_DGKL51akEEEm9NI-13" value="ADDRESS" style="rounded=1;whiteSpace=wrap;html=1;" parent="1" vertex="1">
          <mxGeometry x="444" y="440" width="120" height="60" as="geometry" />
        </mxCell>
        <mxCell id="eU0pKkIWSHJozhpE7N9M-1" value="belongsToSector" style="edgeStyle=orthogonalEdgeStyle;rounded=0;orthogonalLoop=1;jettySize=auto;html=1;" parent="1" source="jL7Q_DGKL51akEEEm9NI-18" target="jL7Q_DGKL51akEEEm9NI-19" edge="1">
          <mxGeometry relative="1" as="geometry" />
        </mxCell>
        <mxCell id="jL7Q_DGKL51akEEEm9NI-18" value="INDUSTRY" style="rounded=1;whiteSpace=wrap;html=1;" parent="1" vertex="1">
          <mxGeometry x="224" y="150" width="120" height="60" as="geometry" />
        </mxCell>
        <mxCell id="jL7Q_DGKL51akEEEm9NI-19" value="SECTOR" style="rounded=1;whiteSpace=wrap;html=1;" parent="1" vertex="1">
          <mxGeometry x="224" width="120" height="60" as="geometry" />
        </mxCell>
        <mxCell id="zePkOHn8G72Zi9qGrkJn-5" value="" style="edgeStyle=none;curved=1;rounded=0;orthogonalLoop=1;jettySize=auto;html=1;fontSize=12;startSize=8;endSize=8;" edge="1" parent="1" source="6gmPq90XaNqOsqY7wAAO-1" target="jL7Q_DGKL51akEEEm9NI-2">
          <mxGeometry relative="1" as="geometry" />
        </mxCell>
        <mxCell id="6gmPq90XaNqOsqY7wAAO-1" value="ETF" style="rounded=1;whiteSpace=wrap;html=1;" parent="1" vertex="1">
          <mxGeometry y="300" width="120" height="60" as="geometry" />
        </mxCell>
        <mxCell id="cFpB28V_D8ZFhYfqeKpF-1" value="hasCompany" style="endArrow=classic;html=1;rounded=0;fontSize=12;startSize=8;endSize=8;curved=1;exitX=1;exitY=0.5;exitDx=0;exitDy=0;entryX=0;entryY=0.5;entryDx=0;entryDy=0;" parent="1" edge="1">
          <mxGeometry width="50" height="50" relative="1" as="geometry">
            <mxPoint x="120" y="329.52" as="sourcePoint" />
            <mxPoint x="220" y="329.52" as="targetPoint" />
          </mxGeometry>
        </mxCell>
        <mxCell id="zePkOHn8G72Zi9qGrkJn-3" value="RECOMMENDATION" style="rounded=1;whiteSpace=wrap;html=1;" vertex="1" parent="1">
          <mxGeometry y="440" width="120" height="60" as="geometry" />
        </mxCell>
        <mxCell id="zePkOHn8G72Zi9qGrkJn-4" value="EARNINGS DATE" style="rounded=1;whiteSpace=wrap;html=1;" vertex="1" parent="1">
          <mxGeometry x="224" y="440" width="120" height="60" as="geometry" />
        </mxCell>
      </root>
    </mxGraphModel>
  </diagram>
</mxfile>
